<?xml version="1.0" encoding="UTF-8"?>
<svg id="_레이어_1" data-name="레이어 1" xmlns="http://www.w3.org/2000/svg" viewBox="0 0 450 450">
  <defs>
    <style>
      .cls-1 {
        fill: #fff;
      }

      .cls-2 {
        fill: none;
        stroke: #fff;
        stroke-miterlimit: 10;
        stroke-width: 2px;
      }
    </style>
  </defs>
  <rect width="450" height="450"/>
  <circle class="cls-2" cx="225" cy="225" r="218.07"/>
  <path class="cls-1" d="M225,437.13c-28.64,0-56.42-5.61-82.57-16.67-25.26-10.68-47.95-25.98-67.43-45.46-19.48-19.48-34.78-42.17-45.46-67.43-11.06-26.15-16.67-53.94-16.67-82.57s5.61-56.42,16.67-82.57c10.68-25.26,25.98-47.95,45.46-67.43,19.48-19.48,42.17-34.78,67.43-45.46,26.15-11.06,53.94-16.67,82.57-16.67s56.42,5.61,82.57,16.67c25.26,10.68,47.95,25.98,67.43,45.46,19.48,19.48,34.78,42.17,45.46,67.43,11.06,26.15,16.67,53.93,16.67,82.57s-5.61,56.42-16.67,82.57c-10.68,25.26-25.98,47.95-45.46,67.43-19.48,19.48-42.17,34.78-67.43,45.46-26.15,11.06-53.94,16.67-82.57,16.67ZM225,18.93c-27.82,0-54.81,5.45-80.21,16.19-24.54,10.38-46.58,25.24-65.5,44.16-18.93,18.93-33.78,40.96-44.16,65.5-10.74,25.4-16.19,52.39-16.19,80.21s5.45,54.81,16.19,80.21c10.38,24.54,25.24,46.58,44.16,65.5,18.93,18.93,40.96,33.78,65.5,44.16,25.4,10.74,52.39,16.19,80.21,16.19s54.81-5.45,80.21-16.19c24.54-10.38,46.58-25.24,65.5-44.16,18.93-18.93,33.78-40.96,44.16-65.5,10.74-25.4,16.19-52.39,16.19-80.21s-5.45-54.81-16.19-80.21c-10.38-24.54-25.24-46.58-44.16-65.5-18.93-18.93-40.96-33.78-65.5-44.16-25.4-10.74-52.39-16.19-80.21-16.19Z"/>
  <g>
    <path class="cls-1" d="M46.94,305.34l18.55-9.63,2.69,5.18c.95,1.84,1.46,3.61,1.53,5.3.07,1.69-.37,3.27-1.32,4.73-.95,1.46-2.51,2.74-4.66,3.86-2.14,1.11-4.1,1.65-5.88,1.62-1.78-.03-3.34-.54-4.7-1.53-1.35-.99-2.49-2.36-3.4-4.12l-2.81-5.42ZM52.78,307.81l.3.58c.5.97,1.12,1.74,1.86,2.31s1.64.84,2.7.82c1.06-.02,2.33-.41,3.79-1.17,1.48-.77,2.51-1.57,3.11-2.41.6-.84.86-1.72.8-2.64s-.35-1.86-.85-2.83l-.3-.58-11.41,5.92Z"/>
    <path class="cls-1" d="M57.63,324.85l17.7-11.11,2.59,4.13-17.7,11.11-2.59-4.13Z"/>
    <path class="cls-1" d="M69.2,342.47c-1.12-1.5-1.82-3.1-2.08-4.79-.27-1.7-.03-3.38.7-5.05.73-1.67,2.04-3.22,3.93-4.63,1.39-1.04,2.79-1.76,4.19-2.15,1.4-.39,2.75-.5,4.05-.33,1.3.17,2.5.6,3.61,1.26,1.11.67,2.07,1.55,2.89,2.64.89,1.19,1.44,2.38,1.64,3.57.2,1.19.22,2.27.07,3.25l-4.1-.13c.07-.69.06-1.35-.04-2-.1-.64-.4-1.31-.91-1.99-.6-.8-1.34-1.36-2.21-1.67-.88-.31-1.83-.35-2.87-.13-1.04.22-2.1.74-3.2,1.56-1.11.83-1.93,1.7-2.47,2.62-.54.92-.77,1.86-.69,2.83.08.97.5,1.96,1.25,2.96.22.29.47.55.75.77.28.22.56.37.82.44l2.69-2.02-1.93-2.57,3.28-2.46,4.53,6.04-7.81,5.85c-.98-.15-2.03-.55-3.14-1.2-1.12-.65-2.1-1.54-2.95-2.68Z"/>
    <path class="cls-1" d="M77.85,352.51l15.64-13.87,3.24,3.65-15.64,13.87-3.24-3.65Z"/>
    <path class="cls-1" d="M88.64,364.05l11.62-12.02-3.94-3.81,2.91-3.01,11.41,11.03-2.91,3.01-3.96-3.83-11.62,12.02-3.51-3.39Z"/>
    <path class="cls-1" d="M97.3,372.4l18-12.35,4.55,3.65-8.18,20.24-4-3.21,4.56-9.73c.44-.99.93-2.02,1.46-3.11s1.03-2.13,1.48-3.13l-.08-.07c-.86.7-1.77,1.42-2.71,2.16s-1.84,1.44-2.7,2.1l-8.51,6.55-3.87-3.11ZM103.64,371.33l2.42-3.02,7.65,6.15-2.42,3.02-7.65-6.15Z"/>
    <path class="cls-1" d="M115.57,386.57l11.44-17.49,4.08,2.67-9.14,13.97,6.62,4.33-2.3,3.52-10.7-7Z"/>
    <path class="cls-1" d="M136.4,399.41l14.59-16.24,5.28,2.48-3.19,21.59-4.64-2.18,2.15-10.52c.2-1.06.43-2.19.69-3.36.26-1.18.5-2.31.7-3.39l-.1-.05c-.68.88-1.39,1.79-2.13,2.73-.74.94-1.45,1.83-2.13,2.67l-6.73,8.37-4.49-2.11ZM142.31,396.89l1.65-3.5,8.88,4.18-1.65,3.5-8.88-4.18Z"/>
    <path class="cls-1" d="M157.61,408.98l6.79-19.77,7.04,2.42c1.37.47,2.57,1.09,3.57,1.85,1.01.76,1.69,1.71,2.06,2.86.37,1.14.28,2.51-.27,4.1-.53,1.54-1.3,2.68-2.31,3.42-1.01.74-2.16,1.14-3.45,1.2-1.29.06-2.62-.14-4-.62l-2.42-.83-2.39,6.95-4.61-1.59ZM165.9,399.87l2.06.71c1.1.38,2.02.42,2.76.13.74-.29,1.27-.89,1.59-1.81.32-.94.26-1.68-.2-2.23-.45-.55-1.23-1.02-2.33-1.39l-2.06-.71-1.82,5.31ZM167.98,412.54l-1.34-9.6,4.19-2.03,2.31,13.4-5.16-1.77Z"/>
    <path class="cls-1" d="M181.57,416.37l3.77-16.29-5.34-1.24.94-4.07,15.46,3.58-.94,4.07-5.36-1.24-3.77,16.29-4.75-1.1Z"/>
    <path class="cls-1" d="M202.56,420.69c-1.32-.17-2.6-.6-3.86-1.27-1.26-.67-2.35-1.57-3.26-2.69l3.21-3.06c.62.72,1.34,1.34,2.16,1.84.82.5,1.63.81,2.42.91.9.12,1.58.04,2.05-.23.47-.27.74-.68.81-1.24.05-.41-.02-.75-.22-1.03-.2-.28-.5-.55-.9-.81-.4-.26-.87-.55-1.41-.86l-2.42-1.45c-.66-.39-1.27-.87-1.83-1.46-.56-.58-.98-1.27-1.27-2.06-.29-.79-.37-1.69-.24-2.69.15-1.17.6-2.18,1.35-3.05.75-.86,1.7-1.5,2.88-1.91,1.17-.41,2.47-.52,3.89-.34,1.17.15,2.3.53,3.4,1.14,1.09.61,2.02,1.42,2.79,2.45l-2.81,2.8c-.6-.61-1.2-1.09-1.82-1.44-.61-.35-1.32-.58-2.11-.69-.74-.1-1.34-.02-1.8.22-.46.24-.73.63-.8,1.17-.05.39.04.73.26,1.02.23.29.55.57.98.84.42.26.92.55,1.48.87l2.38,1.36c.78.44,1.44.96,1.97,1.56.53.6.9,1.27,1.12,2.03.22.76.27,1.62.14,2.61-.15,1.15-.59,2.18-1.33,3.08-.73.9-1.71,1.58-2.93,2.03s-2.65.57-4.27.36Z"/>
    <path class="cls-1" d="M229.71,422.4c-1.51.03-2.78-.22-3.82-.76-1.04-.54-1.82-1.26-2.35-2.17-.53-.91-.8-1.88-.83-2.93-.02-1.16.18-2.15.62-2.96s1.01-1.51,1.73-2.1c.71-.59,1.47-1.11,2.27-1.56.8-.46,1.56-.9,2.28-1.32.72-.43,1.3-.88,1.74-1.37.44-.49.66-1.07.64-1.74,0-.32-.06-.59-.17-.82-.1-.23-.25-.41-.45-.52s-.44-.17-.73-.17c-.49.01-.9.22-1.24.62-.34.4-.5.96-.48,1.67.02.8.28,1.66.8,2.56.52.91,1.2,1.81,2.05,2.72.85.91,1.79,1.77,2.82,2.58,1.03.81,2.09,1.52,3.15,2.14.86.49,1.7.9,2.51,1.22.81.33,1.55.53,2.22.61l-1.06,4.06c-1.06-.18-2.14-.51-3.25-.97-1.11-.46-2.21-1.03-3.29-1.7-1.31-.85-2.55-1.82-3.73-2.9-1.18-1.08-2.23-2.21-3.15-3.39-.92-1.18-1.66-2.36-2.2-3.55-.54-1.19-.83-2.29-.85-3.32-.02-.99.19-1.91.64-2.75.45-.84,1.09-1.52,1.92-2.05.83-.52,1.82-.8,2.97-.82,1.56-.03,2.82.38,3.76,1.23.94.85,1.43,2,1.46,3.46.02.94-.17,1.76-.57,2.48-.4.72-.93,1.37-1.57,1.96-.64.58-1.32,1.13-2.04,1.63-.72.5-1.4.99-2.04,1.47-.64.48-1.17.98-1.58,1.49-.41.51-.6,1.08-.59,1.7,0,.49.14.92.38,1.3.24.38.58.67,1.01.86.43.2.94.29,1.52.28.69-.01,1.39-.22,2.09-.61.7-.39,1.38-.91,2.04-1.56.78-.82,1.47-1.77,2.07-2.84s1.05-2.28,1.37-3.63l4.41-.09c-.42,1.6-1,3.12-1.73,4.57-.73,1.45-1.65,2.83-2.75,4.14-.94,1.12-2.08,2.04-3.42,2.74-1.34.7-2.87,1.07-4.6,1.11Z"/>
    <path class="cls-1" d="M256.43,420.18l-3.82-20.55,4.8-.89,1.46,7.83,6.57-1.22-1.46-7.83,4.77-.89,3.82,20.55-4.77.89-1.57-8.44-6.57,1.22,1.57,8.44-4.8.89Z"/>
    <path class="cls-1" d="M287.78,413.26c-1.3.41-2.5.58-3.6.5-1.1-.07-2.1-.4-3.01-.99-.91-.59-1.72-1.44-2.44-2.57-.72-1.13-1.34-2.53-1.87-4.21l-3.33-10.57,4.63-1.46,3.49,11.08c.39,1.25.83,2.21,1.31,2.88.48.67,1.01,1.1,1.59,1.28.58.18,1.23.16,1.94-.07.71-.22,1.26-.58,1.64-1.06.38-.48.58-1.14.59-1.97.01-.83-.17-1.87-.57-3.12l-3.49-11.08,4.47-1.41,3.33,10.57c.53,1.68.83,3.18.89,4.51.07,1.33-.1,2.5-.5,3.5-.4,1-1.02,1.84-1.87,2.53-.85.69-1.92,1.24-3.2,1.64Z"/>
    <path class="cls-1" d="M302.47,407.8l-8.8-18.96,4.77-2.21,6.72,6.84c.43.46.87.94,1.3,1.45.44.51.87,1.01,1.3,1.51l.12-.06c-.09-.66-.18-1.32-.29-1.98-.11-.66-.2-1.3-.29-1.92l-.98-9.5,4.8-2.23,8.8,18.96-4.03,1.87-3.01-6.49c-.29-.63-.58-1.35-.88-2.16-.3-.81-.58-1.63-.86-2.46-.28-.83-.51-1.57-.71-2.22l-.12.06.57,5.24.74,8.07-2.42,1.12-5.71-5.76-3.59-3.84-.1.05c.37.57.77,1.23,1.22,1.98.45.75.89,1.5,1.31,2.25.43.75.79,1.44,1.08,2.07l3.01,6.49-3.96,1.83Z"/>
    <path class="cls-1" d="M324.3,397.32l-5.64-21.09,4.96-3.07,16.35,14.46-4.36,2.7-7.65-7.54c-.78-.75-1.6-1.55-2.44-2.42-.84-.86-1.66-1.68-2.45-2.44l-.09.06c.37,1.05.75,2.14,1.13,3.28.38,1.14.74,2.22,1.08,3.24l3.33,10.21-4.22,2.61ZM325.42,390.99l-2.04-3.29,8.35-5.16,2.04,3.29-8.35,5.16Z"/>
    <path class="cls-1" d="M343.93,384.79l-12.87-16.47,3.91-3.06,10.14,4.78,4.42,2.42.11-.08c-.78-.79-1.66-1.69-2.64-2.69-.98-1-1.86-2-2.63-2.98l-4.27-5.46,3.65-2.85,12.87,16.47-3.91,3.06-10.16-4.85-4.38-2.38-.11.08c.8.85,1.68,1.76,2.64,2.73.96.97,1.83,1.96,2.61,2.96l4.27,5.46-3.65,2.85Z"/>
    <path class="cls-1" d="M361.91,370.03l-14.25-15.3,3.57-3.33,14.25,15.3-3.57,3.33Z"/>
    <path class="cls-1" d="M373.17,358.97l-12.3-11.33-3.71,4.03-3.08-2.83,10.74-11.67,3.08,2.83-3.73,4.05,12.3,11.32-3.3,3.59Z"/>
    <path class="cls-1" d="M383.58,347.04l-16.41-12.94,3.02-3.83,16.41,12.94-3.02,3.83Z"/>
    <path class="cls-1" d="M390.82,337.67l-17.34-11.67,7.18-10.67,3.47,2.33-4.46,6.63,3.21,2.16,3.79-5.63,3.49,2.35-3.79,5.63,3.68,2.47,4.63-6.88,3.49,2.35-7.35,10.92Z"/>
    <path class="cls-1" d="M404.89,315.77c-.63,1.17-1.49,2.22-2.57,3.15-1.08.93-2.31,1.63-3.68,2.08l-1.71-4.09c.9-.32,1.73-.77,2.49-1.36s1.34-1.23,1.72-1.94c.43-.8.61-1.46.52-2-.08-.53-.37-.93-.87-1.2-.36-.2-.71-.25-1.04-.16-.33.09-.69.27-1.08.55-.38.28-.82.61-1.31,1.01l-2.22,1.74c-.6.48-1.27.88-2.02,1.19-.74.31-1.54.46-2.38.44-.84-.01-1.71-.26-2.6-.74-1.04-.56-1.82-1.35-2.36-2.35-.54-1.01-.79-2.13-.76-3.37.04-1.24.4-2.49,1.08-3.76.56-1.04,1.32-1.96,2.28-2.76.96-.8,2.05-1.38,3.28-1.72l1.6,3.63c-.78.34-1.45.73-2,1.18-.55.45-1.02,1.02-1.4,1.72-.36.66-.5,1.24-.44,1.76.06.52.33.91.8,1.17.35.19.7.23,1.05.12.36-.11.73-.31,1.13-.61.4-.3.85-.66,1.35-1.07l2.12-1.73c.69-.57,1.42-1,2.16-1.28.75-.28,1.51-.38,2.3-.32.78.06,1.61.33,2.48.81,1.02.55,1.82,1.33,2.4,2.34.58,1.01.86,2.16.85,3.47-.02,1.3-.41,2.68-1.19,4.11Z"/>
  </g>
  <g>
    <path class="cls-1" d="M71.05,139.11l-17.19-10.79,2.69-4.29,6.55,4.11,3.68-5.87-6.55-4.11,2.67-4.26,17.19,10.79-2.67,4.26-7.06-4.43-3.68,5.87,7.06,4.43-2.69,4.29Z"/>
    <path class="cls-1" d="M84.62,118.36l-11.32-18.07,3.9-4.63,19.73,8.08-3.42,4.07-9.45-4.52c-.96-.44-1.97-.92-3.02-1.45-1.05-.53-2.06-1.02-3.04-1.47l-.07.09c.65.87,1.32,1.77,2,2.72.69.95,1.33,1.85,1.94,2.71l6.06,8.54-3.31,3.94ZM83.91,111.97l-2.88-2.42,6.55-7.78,2.88,2.42-6.55,7.78Z"/>
    <path class="cls-1" d="M102.5,98.25l-13.72-14.96,3.73-3.42,10.96,11.94,6.04-5.54,2.76,3.01-9.77,8.96Z"/>
    <path class="cls-1" d="M119.53,83.51l-11.75-16.55,4.13-2.93,9.38,13.22,6.69-4.74,2.37,3.33-10.81,7.67Z"/>
    <path class="cls-1" d="M138.93,70.74l-3.48-6.26-11.91-8.41,4.7-2.61,3.73,3.1c.62.53,1.22,1.05,1.81,1.55.59.5,1.21,1.03,1.86,1.58l.1-.05c-.12-.84-.24-1.65-.34-2.43-.11-.77-.21-1.57-.32-2.38l-.66-4.8,4.62-2.57.81,14.57,3.48,6.26-4.4,2.44Z"/>
    <path class="cls-1" d="M155.82,61.92l-7.1-19.01,5.11-1.91,6.2,7.05c.4.47.79.97,1.19,1.49.4.52.79,1.04,1.18,1.55l.13-.05c-.02-.65-.05-1.3-.1-1.96-.04-.65-.08-1.28-.1-1.9l-.05-9.35,5.14-1.92,7.1,19.01-4.32,1.61-2.43-6.51c-.24-.63-.46-1.35-.69-2.16-.22-.81-.43-1.63-.63-2.45s-.37-1.56-.51-2.21l-.13.05.06,5.16-.05,7.93-2.59.97-5.27-5.94-3.29-3.95-.11.04c.32.58.67,1.25,1.05,2.01.38.76.76,1.52,1.12,2.27.36.76.66,1.45.9,2.08l2.43,6.51-4.24,1.58Z"/>
    <path class="cls-1" d="M204.98,49.05c-1.4.17-2.66.13-3.76-.12-1.1-.26-2.06-.74-2.87-1.46-.81-.71-1.47-1.67-1.98-2.87-.51-1.2-.87-2.65-1.08-4.34l-1.32-10.68,4.99-.62,1.39,11.19c.16,1.26.41,2.26.77,2.98.36.72.81,1.22,1.37,1.49.56.27,1.22.36,1.98.26.77-.1,1.39-.34,1.87-.74.48-.4.81-.99.99-1.78.18-.79.19-1.82.03-3.08l-1.39-11.19,4.83-.6,1.32,10.68c.21,1.69.22,3.18.03,4.47-.19,1.29-.59,2.37-1.19,3.26-.6.89-1.4,1.59-2.4,2.11-1,.52-2.19.86-3.57,1.03Z"/>
    <path class="cls-1" d="M223.48,47.18l.7-20.29,5.14.18,4.89,9.9,1.91,4.56h.14c-.09-1.07-.2-2.29-.31-3.65-.11-1.36-.15-2.65-.11-3.86l.23-6.73,4.8.17-.7,20.29-5.14-.18-4.86-9.96-1.91-4.51h-.14c.07,1.12.17,2.35.28,3.67.11,1.32.15,2.6.11,3.83l-.23,6.73-4.8-.17Z"/>
    <path class="cls-1" d="M250.61,49.16l3.27-20.03,4.99.82-3.27,20.03-4.99-.82Z"/>
    <path class="cls-1" d="M269.37,53.04l-.42-21.25,5.13,1.48-.26,9.57c0,1.14-.03,2.24-.09,3.32-.07,1.08-.11,2.2-.13,3.36l.14.04c.62-.99,1.19-1.96,1.71-2.91.52-.95,1.07-1.9,1.67-2.87l4.85-8.24,4.94,1.43-11.69,17.75-5.84-1.69Z"/>
    <path class="cls-1" d="M288.44,59.34l8.37-18.49,12.16,5.5-1.67,3.7-7.55-3.41-1.55,3.43,6.41,2.9-1.69,3.72-6.41-2.9-1.78,3.92,7.83,3.54-1.69,3.72-12.44-5.63Z"/>
    <path class="cls-1" d="M309.39,69.59l11.02-17.05,6.48,4.19c1.27.82,2.32,1.73,3.16,2.72.84,1,1.31,2.09,1.43,3.28.12,1.19-.27,2.47-1.15,3.84-.86,1.33-1.87,2.21-3.04,2.64-1.17.44-2.4.51-3.7.22-1.3-.29-2.58-.84-3.84-1.66l-2.23-1.44-3.87,6-4.25-2.75ZM318.93,75.75l.73-9.52,4.6-.82-.59,13.41-4.75-3.07ZM319.6,63.11l1.9,1.23c1.01.65,1.92.94,2.72.87.8-.08,1.46-.51,1.97-1.3.52-.81.62-1.54.28-2.18-.33-.65-1.01-1.3-2.02-1.95l-1.9-1.23-2.96,4.58Z"/>
    <path class="cls-1" d="M334.54,88.32c-1.04-.91-1.91-2-2.64-3.28s-1.18-2.64-1.37-4.09l4.38-.63c.15.95.44,1.87.88,2.76.44.89.97,1.61,1.59,2.15.71.62,1.34.96,1.88,1.01.54.05.99-.13,1.35-.54.26-.3.38-.62.36-.97-.02-.35-.14-.74-.34-1.18-.2-.44-.45-.95-.75-1.52l-1.31-2.59c-.36-.7-.63-1.45-.79-2.25-.17-.8-.16-1.6,0-2.42.17-.81.58-1.59,1.23-2.33.75-.86,1.68-1.43,2.78-1.7s2.26-.23,3.49.11c1.22.35,2.4,1.01,3.52,1.99.92.81,1.69,1.77,2.31,2.9.62,1.13.98,2.33,1.09,3.61l-3.9.64c-.19-.84-.45-1.58-.79-2.23-.34-.64-.82-1.24-1.44-1.79-.58-.51-1.14-.8-1.66-.87s-.96.09-1.31.49c-.25.29-.36.62-.32.99.04.37.17.79.39,1.25.22.46.49.98.8,1.57l1.32,2.49c.44.82.72,1.62.86,2.41.13.79.09,1.56-.12,2.3-.21.74-.63,1.48-1.27,2.2-.74.85-1.67,1.43-2.77,1.74-1.11.31-2.31.29-3.6-.05-1.29-.34-2.57-1.07-3.85-2.19Z"/>
    <path class="cls-1" d="M347.14,99.98l15.09-13.58,3.39,3.76-15.09,13.58-3.39-3.76Z"/>
    <path class="cls-1" d="M359.59,115.11l13.28-9.34-3.27-4.65,3.32-2.34,9.47,13.46-3.32,2.34-3.29-4.67-13.28,9.34-2.91-4.14Z"/>
    <path class="cls-1" d="M371.5,134.1l6.36-3.29,8.75-11.66,2.47,4.77-3.21,3.63c-.55.6-1.08,1.19-1.6,1.77-.52.58-1.07,1.18-1.64,1.82l.05.1c.85-.1,1.66-.19,2.44-.27.77-.08,1.57-.17,2.39-.25l4.82-.52,2.43,4.7-14.59.38-6.36,3.29-2.31-4.47Z"/>
  </g>
  <g>
    <g>
      <path class="cls-1" d="M248.69,57.97c-76.75-12.18-149.79,29.57-180.52,97.1.37.07.66.17.98.25.35.11.68.19,1.03.29,30.44-66.53,102.49-107.61,178.19-95.6,57.85,9.18,104.06,47.19,126.37,97.04.5.25,1.02.47,1.51.73.44.2.88.42,1.35.66-22.24-51.58-69.5-91.04-128.91-100.47h0Z"/>
      <path class="cls-1" d="M247.43,65.95c53.38,8.47,96.45,42.43,118.94,87.46.97.4,1.96.8,2.88,1.19-22.44-46.66-66.59-81.96-121.5-90.67-73.76-11.7-143.94,28.22-173.73,92.91.61.24,1.27.51,1.88.75,29.5-63.81,98.75-103.18,171.53-91.63h0Z"/>
    </g>
    <g>
      <path class="cls-1" d="M201.31,392.03c76.75,12.18,149.79-29.57,180.52-97.1-.37-.07-.66-.17-.98-.25-.35-.11-.68-.19-1.03-.29-30.44,66.53-102.49,107.61-178.19,95.6-57.85-9.18-104.06-47.19-126.37-97.04-.5-.25-1.02-.47-1.51-.73-.44-.2-.88-.42-1.35-.66,22.24,51.58,69.5,91.04,128.91,100.47h0Z"/>
      <path class="cls-1" d="M202.57,384.05c-53.38-8.47-96.45-42.43-118.94-87.46-.97-.4-1.96-.8-2.88-1.19,22.44,46.66,66.59,81.96,121.5,90.67,73.76,11.7,143.94-28.22,173.73-92.91-.61-.24-1.27-.51-1.88-.75-29.5,63.81-98.75,103.18-171.53,91.63h0Z"/>
    </g>
  </g>
  <g>
    <path class="cls-1" d="M160.58,261.12c-14.42-1.58-25.65-7.29-30.29-21.49-1.26-3.84-1.81-7.88-1.81-11.92v-37.17h16.1v36.85c.23,9.91,5.22,17.05,16.07,18.15l-.07,15.58Z"/>
    <rect class="cls-1" x="61.87" y="190.54" width="16.1" height="46.49"/>
    <rect class="cls-1" x="288.67" y="190.54" width="16.1" height="15.81"/>
    <rect class="cls-1" x="288.67" y="213.1" width="16.1" height="46.24"/>
    <rect class="cls-1" x="61.87" y="243.74" width="60.09" height="16.1"/>
    <path class="cls-1" d="M167.32,261.12c14.42-1.58,25.65-7.29,30.29-21.49,1.26-3.84,1.81-7.88,1.81-11.92v-37.17h-16.1s0,36.85,0,36.85c-.23,9.91-5.22,17.05-16.07,18.15l.07,15.58Z"/>
    <path class="cls-1" d="M388.11,222.43c-.5-14.15-8.87-25.69-23.15-30.31-3.8-1.23-7.95-1.77-11.95-1.77h-37.01v16.1h37.01c8.98.21,16.28,4.34,18.42,13.19.37,1.54.51,3.13.53,4.71,0,.46,0,.92,0,1.37-.01,1.22-.09,2.43-.32,3.63-1.82,9.5-9.33,13.91-18.62,14.13h-20.92v-30.38h-16.1v46.47h37.01c3.99,0,8.14-.54,11.95-1.77,14.28-4.62,22.66-16.16,23.15-30.31.04-1.6.03-3.29,0-5.06Z"/>
    <g>
      <path class="cls-1" d="M228.13,213.57c4.36-5.76,11.92-9.58,20.51-9.58,8.1,0,15.27,3.38,19.72,8.59l11.06-11.34c-7.53-7.58-18.6-12.37-30.95-12.37-18.15,0-33.55,10.35-38.99,24.7h18.64Z"/>
      <path class="cls-1" d="M248.64,246c-13.5,0-24.45-9.4-24.45-21,0-1.64.23-3.24.64-4.78h-17.09c-.24,1.56-.37,3.16-.37,4.78,0,19.95,18.4,36.13,41.1,36.13,12.31,0,23.35-4.77,30.89-12.31l-11.17-11.2c-4.46,5.09-11.56,8.38-19.55,8.38Z"/>
    </g>
  </g>
</svg>